# xmcd
#
# Track frame offsets:
#	150
#	17805
#	31512
#	48745
#	64360
#	84302
#	100615
#	115435
#	130437
#	144295
#	158190
#	175680
#	193125
#	207330
#	222967
#	236777
#	253972
#	269605
#
# Disc length: 3810 seconds
#
# Revision: 19
# Processed by: cddbd v1.5.2PL0 Copyright (c) Steve Scherf et al.
# Submitted via: EasyCDDAExtractor 15.3.0.1
#
DISCID=0d0ee012
DTITLE=Gloria Estefan - Unwrapped
DYEAR=2003
DGENRE=Pop
TTITLE0=A Little Push
TTITLE1=Te Amare
TTITLE2=Your Picture
TTITLE3=Wrapped
TTITLE4=Time Waits
TTITLE5=In The Meantime
TTITLE6=Dangerous Game
TTITLE7=Into You
TTITLE8=One Name
TTITLE9=I Will Always Need Your Love
TTITLE10=Say Goodbye
TTITLE11=I Wish You
TTITLE12=You
TTITLE13=Famous
TTITLE14=Te Amare
TTITLE15=Tu Fotografia
TTITLE16=Hoy
TTITLE17=Mientras Tanto
EXTD=
EXTT0=
EXTT1=
EXTT2=
EXTT3=
EXTT4=
EXTT5=
EXTT6=
EXTT7=
EXTT8=
EXTT9=
EXTT10=
EXTT11=
EXTT12=
EXTT13=
EXTT14=
EXTT15=
EXTT16=
EXTT17=
PLAYORDER=
